<svg width="552" height="582" viewBox="0 0 552 582" fill="none" xmlns="http://www.w3.org/2000/svg">
<rect x="1" y="1" width="550" height="580" fill="white" stroke="#BDBDBD"/>
<circle cx="276" cy="154" r="100" stroke="#316499" stroke-width="3"/>
<path d="M148.801 331.15C150.668 331.483 152.251 332.467 153.551 334.1C154.851 335.733 155.501 337.583 155.501 339.65C155.501 341.417 155.035 343.017 154.101 344.45C153.201 345.85 151.885 346.967 150.151 347.8C148.418 348.6 146.401 349 144.101 349H130.201V314.25H143.451C145.818 314.25 147.851 314.65 149.551 315.45C151.251 316.25 152.535 317.333 153.401 318.7C154.268 320.033 154.701 321.533 154.701 323.2C154.701 325.2 154.168 326.867 153.101 328.2C152.035 329.533 150.601 330.517 148.801 331.15ZM135.901 328.85H142.951C144.818 328.85 146.268 328.433 147.301 327.6C148.368 326.733 148.901 325.5 148.901 323.9C148.901 322.333 148.368 321.117 147.301 320.25C146.268 319.35 144.818 318.9 142.951 318.9H135.901V328.85ZM143.601 344.35C145.535 344.35 147.051 343.883 148.151 342.95C149.251 342.017 149.801 340.717 149.801 339.05C149.801 337.35 149.218 336 148.051 335C146.885 334 145.335 333.5 143.401 333.5H135.901V344.35H143.601ZM186.645 321.45V349H180.945V345.75C180.045 346.883 178.862 347.783 177.395 348.45C175.962 349.083 174.429 349.4 172.795 349.4C170.629 349.4 168.679 348.95 166.945 348.05C165.245 347.15 163.895 345.817 162.895 344.05C161.929 342.283 161.445 340.15 161.445 337.65V321.45H167.095V336.8C167.095 339.267 167.712 341.167 168.945 342.5C170.179 343.8 171.862 344.45 173.995 344.45C176.129 344.45 177.812 343.8 179.045 342.5C180.312 341.167 180.945 339.267 180.945 336.8V321.45H186.645ZM218.966 321.45L202.066 361.95H196.166L201.766 348.55L190.916 321.45H197.266L205.016 342.45L213.066 321.45H218.966ZM234.356 335.1C234.356 332.333 234.923 329.883 236.056 327.75C237.223 325.617 238.789 323.967 240.756 322.8C242.756 321.6 244.956 321 247.356 321C249.523 321 251.406 321.433 253.006 322.3C254.639 323.133 255.939 324.183 256.906 325.45V321.45H262.656V349H256.906V344.9C255.939 346.2 254.623 347.283 252.956 348.15C251.289 349.017 249.389 349.45 247.256 349.45C244.889 349.45 242.723 348.85 240.756 347.65C238.789 346.417 237.223 344.717 236.056 342.55C234.923 340.35 234.356 337.867 234.356 335.1ZM256.906 335.2C256.906 333.3 256.506 331.65 255.706 330.25C254.939 328.85 253.923 327.783 252.656 327.05C251.389 326.317 250.023 325.95 248.556 325.95C247.089 325.95 245.723 326.317 244.456 327.05C243.189 327.75 242.156 328.8 241.356 330.2C240.589 331.567 240.206 333.2 240.206 335.1C240.206 337 240.589 338.667 241.356 340.1C242.156 341.533 243.189 342.633 244.456 343.4C245.756 344.133 247.123 344.5 248.556 344.5C250.023 344.5 251.389 344.133 252.656 343.4C253.923 342.667 254.939 341.6 255.706 340.2C256.506 338.767 256.906 337.1 256.906 335.2ZM297.381 321C299.481 321 301.348 321.45 302.981 322.35C304.648 323.25 305.948 324.583 306.881 326.35C307.848 328.117 308.331 330.25 308.331 332.75V349H302.681V333.6C302.681 331.133 302.064 329.25 300.831 327.95C299.598 326.617 297.914 325.95 295.781 325.95C293.648 325.95 291.948 326.617 290.681 327.95C289.448 329.25 288.831 331.133 288.831 333.6V349H283.131V312H288.831V324.65C289.798 323.483 291.014 322.583 292.481 321.95C293.981 321.317 295.614 321 297.381 321ZM327.552 349.45C324.952 349.45 322.602 348.867 320.502 347.7C318.402 346.5 316.752 344.833 315.552 342.7C314.352 340.533 313.752 338.033 313.752 335.2C313.752 332.4 314.368 329.917 315.602 327.75C316.835 325.583 318.518 323.917 320.652 322.75C322.785 321.583 325.168 321 327.802 321C330.435 321 332.818 321.583 334.952 322.75C337.085 323.917 338.768 325.583 340.002 327.75C341.235 329.917 341.852 332.4 341.852 335.2C341.852 338 341.218 340.483 339.952 342.65C338.685 344.817 336.952 346.5 334.752 347.7C332.585 348.867 330.185 349.45 327.552 349.45ZM327.552 344.5C329.018 344.5 330.385 344.15 331.652 343.45C332.952 342.75 334.002 341.7 334.802 340.3C335.602 338.9 336.002 337.2 336.002 335.2C336.002 333.2 335.618 331.517 334.852 330.15C334.085 328.75 333.068 327.7 331.802 327C330.535 326.3 329.168 325.95 327.702 325.95C326.235 325.95 324.868 326.3 323.602 327C322.368 327.7 321.385 328.75 320.652 330.15C319.918 331.517 319.552 333.2 319.552 335.2C319.552 338.167 320.302 340.467 321.802 342.1C323.335 343.7 325.252 344.5 327.552 344.5ZM380.836 321C383.003 321 384.936 321.45 386.636 322.35C388.37 323.25 389.72 324.583 390.686 326.35C391.686 328.117 392.186 330.25 392.186 332.75V349H386.536V333.6C386.536 331.133 385.92 329.25 384.686 327.95C383.453 326.617 381.77 325.95 379.636 325.95C377.503 325.95 375.803 326.617 374.536 327.95C373.303 329.25 372.686 331.133 372.686 333.6V349H367.036V333.6C367.036 331.133 366.42 329.25 365.186 327.95C363.953 326.617 362.27 325.95 360.136 325.95C358.003 325.95 356.303 326.617 355.036 327.95C353.803 329.25 353.186 331.133 353.186 333.6V349H347.486V321.45H353.186V324.6C354.12 323.467 355.303 322.583 356.736 321.95C358.17 321.317 359.703 321 361.336 321C363.536 321 365.503 321.467 367.236 322.4C368.97 323.333 370.303 324.683 371.236 326.45C372.07 324.783 373.37 323.467 375.136 322.5C376.903 321.5 378.803 321 380.836 321ZM424.689 334.55C424.689 335.583 424.623 336.517 424.489 337.35H403.439C403.606 339.55 404.423 341.317 405.889 342.65C407.356 343.983 409.156 344.65 411.289 344.65C414.356 344.65 416.523 343.367 417.789 340.8H423.939C423.106 343.333 421.589 345.417 419.389 347.05C417.223 348.65 414.523 349.45 411.289 349.45C408.656 349.45 406.289 348.867 404.189 347.7C402.123 346.5 400.489 344.833 399.289 342.7C398.123 340.533 397.539 338.033 397.539 335.2C397.539 332.367 398.106 329.883 399.239 327.75C400.406 325.583 402.023 323.917 404.089 322.75C406.189 321.583 408.589 321 411.289 321C413.889 321 416.206 321.567 418.239 322.7C420.273 323.833 421.856 325.433 422.989 327.5C424.123 329.533 424.689 331.883 424.689 334.55ZM418.739 332.75C418.706 330.65 417.956 328.967 416.489 327.7C415.023 326.433 413.206 325.8 411.039 325.8C409.073 325.8 407.389 326.433 405.989 327.7C404.589 328.933 403.756 330.617 403.489 332.75H418.739Z" fill="black"/>
<path d="M85.5896 396.15L78.6896 409.44V417H75.2696V409.44L68.3396 396.15H72.1496L76.9796 406.38L81.8096 396.15H85.5896ZM95.4737 417.27C93.9137 417.27 92.5037 416.92 91.2437 416.22C89.9837 415.5 88.9937 414.5 88.2737 413.22C87.5537 411.92 87.1937 410.42 87.1937 408.72C87.1937 407.04 87.5637 405.55 88.3037 404.25C89.0437 402.95 90.0537 401.95 91.3337 401.25C92.6137 400.55 94.0437 400.2 95.6237 400.2C97.2037 400.2 98.6337 400.55 99.9137 401.25C101.194 401.95 102.204 402.95 102.944 404.25C103.684 405.55 104.054 407.04 104.054 408.72C104.054 410.4 103.674 411.89 102.914 413.19C102.154 414.49 101.114 415.5 99.7937 416.22C98.4937 416.92 97.0537 417.27 95.4737 417.27ZM95.4737 414.3C96.3537 414.3 97.1737 414.09 97.9337 413.67C98.7137 413.25 99.3437 412.62 99.8237 411.78C100.304 410.94 100.544 409.92 100.544 408.72C100.544 407.52 100.314 406.51 99.8537 405.69C99.3937 404.85 98.7837 404.22 98.0237 403.8C97.2637 403.38 96.4437 403.17 95.5637 403.17C94.6837 403.17 93.8637 403.38 93.1037 403.8C92.3637 404.22 91.7737 404.85 91.3337 405.69C90.8937 406.51 90.6737 407.52 90.6737 408.72C90.6737 410.5 91.1237 411.88 92.0237 412.86C92.9437 413.82 94.0937 414.3 95.4737 414.3ZM122.405 400.47V417H118.985V415.05C118.445 415.73 117.735 416.27 116.855 416.67C115.995 417.05 115.075 417.24 114.095 417.24C112.795 417.24 111.625 416.97 110.585 416.43C109.565 415.89 108.755 415.09 108.155 414.03C107.575 412.97 107.285 411.69 107.285 410.19V400.47H110.675V409.68C110.675 411.16 111.045 412.3 111.785 413.1C112.525 413.88 113.535 414.27 114.815 414.27C116.095 414.27 117.105 413.88 117.845 413.1C118.605 412.3 118.985 411.16 118.985 409.68V400.47H122.405ZM133.57 408.66C133.57 407 133.91 405.53 134.59 404.25C135.29 402.97 136.23 401.98 137.41 401.28C138.61 400.56 139.93 400.2 141.37 400.2C142.67 400.2 143.8 400.46 144.76 400.98C145.74 401.48 146.52 402.11 147.1 402.87V400.47H150.55V417H147.1V414.54C146.52 415.32 145.73 415.97 144.73 416.49C143.73 417.01 142.59 417.27 141.31 417.27C139.89 417.27 138.59 416.91 137.41 416.19C136.23 415.45 135.29 414.43 134.59 413.13C133.91 411.81 133.57 410.32 133.57 408.66ZM147.1 408.72C147.1 407.58 146.86 406.59 146.38 405.75C145.92 404.91 145.31 404.27 144.55 403.83C143.79 403.39 142.97 403.17 142.09 403.17C141.21 403.17 140.39 403.39 139.63 403.83C138.87 404.25 138.25 404.88 137.77 405.72C137.31 406.54 137.08 407.52 137.08 408.66C137.08 409.8 137.31 410.8 137.77 411.66C138.25 412.52 138.87 413.18 139.63 413.64C140.41 414.08 141.23 414.3 142.09 414.3C142.97 414.3 143.79 414.08 144.55 413.64C145.31 413.2 145.92 412.56 146.38 411.72C146.86 410.86 147.1 409.86 147.1 408.72ZM158.462 402.87C158.962 402.03 159.622 401.38 160.442 400.92C161.282 400.44 162.272 400.2 163.412 400.2V403.74H162.542C161.202 403.74 160.182 404.08 159.482 404.76C158.802 405.44 158.462 406.62 158.462 408.3V417H155.042V400.47H158.462V402.87ZM181.706 408.33C181.706 408.95 181.666 409.51 181.586 410.01H168.956C169.056 411.33 169.546 412.39 170.426 413.19C171.306 413.99 172.386 414.39 173.666 414.39C175.506 414.39 176.806 413.62 177.566 412.08H181.256C180.756 413.6 179.846 414.85 178.526 415.83C177.226 416.79 175.606 417.27 173.666 417.27C172.086 417.27 170.666 416.92 169.406 416.22C168.166 415.5 167.186 414.5 166.466 413.22C165.766 411.92 165.416 410.42 165.416 408.72C165.416 407.02 165.756 405.53 166.436 404.25C167.136 402.95 168.106 401.95 169.346 401.25C170.606 400.55 172.046 400.2 173.666 400.2C175.226 400.2 176.616 400.54 177.836 401.22C179.056 401.9 180.006 402.86 180.686 404.1C181.366 405.32 181.706 406.73 181.706 408.33ZM178.136 407.25C178.116 405.99 177.666 404.98 176.786 404.22C175.906 403.46 174.816 403.08 173.516 403.08C172.336 403.08 171.326 403.46 170.486 404.22C169.646 404.96 169.146 405.97 168.986 407.25H178.136ZM194.604 398.28C193.984 398.28 193.464 398.07 193.044 397.65C192.624 397.23 192.414 396.71 192.414 396.09C192.414 395.47 192.624 394.95 193.044 394.53C193.464 394.11 193.984 393.9 194.604 393.9C195.204 393.9 195.714 394.11 196.134 394.53C196.554 394.95 196.764 395.47 196.764 396.09C196.764 396.71 196.554 397.23 196.134 397.65C195.714 398.07 195.204 398.28 194.604 398.28ZM196.284 400.47V417H192.864V400.47H196.284ZM209.114 400.2C210.414 400.2 211.574 400.47 212.594 401.01C213.634 401.55 214.444 402.35 215.024 403.41C215.604 404.47 215.894 405.75 215.894 407.25V417H212.504V407.76C212.504 406.28 212.134 405.15 211.394 404.37C210.654 403.57 209.644 403.17 208.364 403.17C207.084 403.17 206.064 403.57 205.304 404.37C204.564 405.15 204.194 406.28 204.194 407.76V417H200.774V400.47H204.194V402.36C204.754 401.68 205.464 401.15 206.324 400.77C207.204 400.39 208.134 400.2 209.114 400.2ZM232.04 403.26V412.41C232.04 413.03 232.18 413.48 232.46 413.76C232.76 414.02 233.26 414.15 233.96 414.15H236.06V417H233.36C231.82 417 230.64 416.64 229.82 415.92C229 415.2 228.59 414.03 228.59 412.41V403.26H226.64V400.47H228.59V396.36H232.04V400.47H236.06V403.26H232.04ZM247.762 400.2C249.022 400.2 250.142 400.47 251.122 401.01C252.122 401.55 252.902 402.35 253.462 403.41C254.042 404.47 254.332 405.75 254.332 407.25V417H250.942V407.76C250.942 406.28 250.572 405.15 249.832 404.37C249.092 403.57 248.082 403.17 246.802 403.17C245.522 403.17 244.502 403.57 243.742 404.37C243.002 405.15 242.632 406.28 242.632 407.76V417H239.212V394.8H242.632V402.39C243.212 401.69 243.942 401.15 244.822 400.77C245.722 400.39 246.702 400.2 247.762 400.2ZM273.844 408.33C273.844 408.95 273.804 409.51 273.724 410.01H261.094C261.194 411.33 261.684 412.39 262.564 413.19C263.444 413.99 264.524 414.39 265.804 414.39C267.644 414.39 268.944 413.62 269.704 412.08H273.394C272.894 413.6 271.984 414.85 270.664 415.83C269.364 416.79 267.744 417.27 265.804 417.27C264.224 417.27 262.804 416.92 261.544 416.22C260.304 415.5 259.324 414.5 258.604 413.22C257.904 411.92 257.554 410.42 257.554 408.72C257.554 407.02 257.894 405.53 258.574 404.25C259.274 402.95 260.244 401.95 261.484 401.25C262.744 400.55 264.184 400.2 265.804 400.2C267.364 400.2 268.754 400.54 269.974 401.22C271.194 401.9 272.144 402.86 272.824 404.1C273.504 405.32 273.844 406.73 273.844 408.33ZM270.274 407.25C270.254 405.99 269.804 404.98 268.924 404.22C268.044 403.46 266.954 403.08 265.654 403.08C264.474 403.08 263.464 403.46 262.624 404.22C261.784 404.96 261.284 405.97 261.124 407.25H270.274ZM288.423 402.87C288.923 402.03 289.583 401.38 290.403 400.92C291.243 400.44 292.233 400.2 293.373 400.2V403.74H292.503C291.163 403.74 290.143 404.08 289.443 404.76C288.763 405.44 288.423 406.62 288.423 408.3V417H285.003V400.47H288.423V402.87ZM298.257 398.28C297.637 398.28 297.117 398.07 296.697 397.65C296.277 397.23 296.067 396.71 296.067 396.09C296.067 395.47 296.277 394.95 296.697 394.53C297.117 394.11 297.637 393.9 298.257 393.9C298.857 393.9 299.367 394.11 299.787 394.53C300.207 394.95 300.417 395.47 300.417 396.09C300.417 396.71 300.207 397.23 299.787 397.65C299.367 398.07 298.857 398.28 298.257 398.28ZM299.937 400.47V417H296.517V400.47H299.937ZM311.087 400.2C312.367 400.2 313.497 400.46 314.477 400.98C315.477 401.48 316.257 402.11 316.817 402.87V400.47H320.267V417.27C320.267 418.79 319.947 420.14 319.307 421.32C318.667 422.52 317.737 423.46 316.517 424.14C315.317 424.82 313.877 425.16 312.197 425.16C309.957 425.16 308.097 424.63 306.617 423.57C305.137 422.53 304.297 421.11 304.097 419.31H307.487C307.747 420.17 308.297 420.86 309.137 421.38C309.997 421.92 311.017 422.19 312.197 422.19C313.577 422.19 314.687 421.77 315.527 420.93C316.387 420.09 316.817 418.87 316.817 417.27V414.51C316.237 415.29 315.447 415.95 314.447 416.49C313.467 417.01 312.347 417.27 311.087 417.27C309.647 417.27 308.327 416.91 307.127 416.19C305.947 415.45 305.007 414.43 304.307 413.13C303.627 411.81 303.287 410.32 303.287 408.66C303.287 407 303.627 405.53 304.307 404.25C305.007 402.97 305.947 401.98 307.127 401.28C308.327 400.56 309.647 400.2 311.087 400.2ZM316.817 408.72C316.817 407.58 316.577 406.59 316.097 405.75C315.637 404.91 315.027 404.27 314.267 403.83C313.507 403.39 312.687 403.17 311.807 403.17C310.927 403.17 310.107 403.39 309.347 403.83C308.587 404.25 307.967 404.88 307.487 405.72C307.027 406.54 306.797 407.52 306.797 408.66C306.797 409.8 307.027 410.8 307.487 411.66C307.967 412.52 308.587 413.18 309.347 413.64C310.127 414.08 310.947 414.3 311.807 414.3C312.687 414.3 313.507 414.08 314.267 413.64C315.027 413.2 315.637 412.56 316.097 411.72C316.577 410.86 316.817 409.86 316.817 408.72ZM333.309 400.2C334.569 400.2 335.689 400.47 336.669 401.01C337.669 401.55 338.449 402.35 339.009 403.41C339.589 404.47 339.879 405.75 339.879 407.25V417H336.489V407.76C336.489 406.28 336.119 405.15 335.379 404.37C334.639 403.57 333.629 403.17 332.349 403.17C331.069 403.17 330.049 403.57 329.289 404.37C328.549 405.15 328.179 406.28 328.179 407.76V417H324.759V394.8H328.179V402.39C328.759 401.69 329.489 401.15 330.369 400.77C331.269 400.39 332.249 400.2 333.309 400.2ZM348.231 403.26V412.41C348.231 413.03 348.371 413.48 348.651 413.76C348.951 414.02 349.451 414.15 350.151 414.15H352.251V417H349.551C348.011 417 346.831 416.64 346.011 415.92C345.191 415.2 344.781 414.03 344.781 412.41V403.26H342.831V400.47H344.781V396.36H348.231V400.47H352.251V403.26H348.231ZM366.616 402.9C367.196 402.14 367.986 401.5 368.986 400.98C369.986 400.46 371.116 400.2 372.376 400.2C373.816 400.2 375.126 400.56 376.306 401.28C377.506 401.98 378.446 402.97 379.126 404.25C379.806 405.53 380.146 407 380.146 408.66C380.146 410.32 379.806 411.81 379.126 413.13C378.446 414.43 377.506 415.45 376.306 416.19C375.126 416.91 373.816 417.27 372.376 417.27C371.116 417.27 369.996 417.02 369.016 416.52C368.036 416 367.236 415.36 366.616 414.6V424.86H363.196V400.47H366.616V402.9ZM376.666 408.66C376.666 407.52 376.426 406.54 375.946 405.72C375.486 404.88 374.866 404.25 374.086 403.83C373.326 403.39 372.506 403.17 371.626 403.17C370.766 403.17 369.946 403.39 369.166 403.83C368.406 404.27 367.786 404.91 367.306 405.75C366.846 406.59 366.616 407.58 366.616 408.72C366.616 409.86 366.846 410.86 367.306 411.72C367.786 412.56 368.406 413.2 369.166 413.64C369.946 414.08 370.766 414.3 371.626 414.3C372.506 414.3 373.326 414.08 374.086 413.64C374.866 413.18 375.486 412.52 375.946 411.66C376.426 410.8 376.666 409.8 376.666 408.66ZM386.948 394.8V417H383.528V394.8H386.948ZM390.298 408.66C390.298 407 390.638 405.53 391.318 404.25C392.018 402.97 392.958 401.98 394.138 401.28C395.338 400.56 396.658 400.2 398.098 400.2C399.398 400.2 400.528 400.46 401.488 400.98C402.468 401.48 403.248 402.11 403.828 402.87V400.47H407.278V417H403.828V414.54C403.248 415.32 402.458 415.97 401.458 416.49C400.458 417.01 399.318 417.27 398.038 417.27C396.618 417.27 395.318 416.91 394.138 416.19C392.958 415.45 392.018 414.43 391.318 413.13C390.638 411.81 390.298 410.32 390.298 408.66ZM403.828 408.72C403.828 407.58 403.588 406.59 403.108 405.75C402.648 404.91 402.038 404.27 401.278 403.83C400.518 403.39 399.698 403.17 398.818 403.17C397.938 403.17 397.118 403.39 396.358 403.83C395.598 404.25 394.978 404.88 394.498 405.72C394.038 406.54 393.808 407.52 393.808 408.66C393.808 409.8 394.038 410.8 394.498 411.66C394.978 412.52 395.598 413.18 396.358 413.64C397.138 414.08 397.958 414.3 398.818 414.3C399.698 414.3 400.518 414.08 401.278 413.64C402.038 413.2 402.648 412.56 403.108 411.72C403.588 410.86 403.828 409.86 403.828 408.72ZM410.631 408.72C410.631 407.02 410.971 405.53 411.651 404.25C412.351 402.95 413.311 401.95 414.531 401.25C415.751 400.55 417.151 400.2 418.731 400.2C420.731 400.2 422.381 400.68 423.681 401.64C425.001 402.58 425.891 403.93 426.351 405.69H422.661C422.361 404.87 421.881 404.23 421.221 403.77C420.561 403.31 419.731 403.08 418.731 403.08C417.331 403.08 416.211 403.58 415.371 404.58C414.551 405.56 414.141 406.94 414.141 408.72C414.141 410.5 414.551 411.89 415.371 412.89C416.211 413.89 417.331 414.39 418.731 414.39C420.711 414.39 422.021 413.52 422.661 411.78H426.351C425.871 413.46 424.971 414.8 423.651 415.8C422.331 416.78 420.691 417.27 418.731 417.27C417.151 417.27 415.751 416.92 414.531 416.22C413.311 415.5 412.351 414.5 411.651 413.22C410.971 411.92 410.631 410.42 410.631 408.72ZM444.909 408.33C444.909 408.95 444.869 409.51 444.789 410.01H432.159C432.259 411.33 432.749 412.39 433.629 413.19C434.509 413.99 435.589 414.39 436.869 414.39C438.709 414.39 440.009 413.62 440.769 412.08H444.459C443.959 413.6 443.049 414.85 441.729 415.83C440.429 416.79 438.809 417.27 436.869 417.27C435.289 417.27 433.869 416.92 432.609 416.22C431.369 415.5 430.389 414.5 429.669 413.22C428.969 411.92 428.619 410.42 428.619 408.72C428.619 407.02 428.959 405.53 429.639 404.25C430.339 402.95 431.309 401.95 432.549 401.25C433.809 400.55 435.249 400.2 436.869 400.2C438.429 400.2 439.819 400.54 441.039 401.22C442.259 401.9 443.209 402.86 443.889 404.1C444.569 405.32 444.909 406.73 444.909 408.33ZM441.339 407.25C441.319 405.99 440.869 404.98 439.989 404.22C439.109 403.46 438.019 403.08 436.719 403.08C435.539 403.08 434.529 403.46 433.689 404.22C432.849 404.96 432.349 405.97 432.189 407.25H441.339ZM460.057 403.26V412.41C460.057 413.03 460.197 413.48 460.477 413.76C460.777 414.02 461.277 414.15 461.977 414.15H464.077V417H461.377C459.837 417 458.657 416.64 457.837 415.92C457.017 415.2 456.607 414.03 456.607 412.41V403.26H454.657V400.47H456.607V396.36H460.057V400.47H464.077V403.26H460.057ZM474.399 417.27C472.839 417.27 471.429 416.92 470.169 416.22C468.909 415.5 467.919 414.5 467.199 413.22C466.479 411.92 466.119 410.42 466.119 408.72C466.119 407.04 466.489 405.55 467.229 404.25C467.969 402.95 468.979 401.95 470.259 401.25C471.539 400.55 472.969 400.2 474.549 400.2C476.129 400.2 477.559 400.55 478.839 401.25C480.119 401.95 481.129 402.95 481.869 404.25C482.609 405.55 482.979 407.04 482.979 408.72C482.979 410.4 482.599 411.89 481.839 413.19C481.079 414.49 480.039 415.5 478.719 416.22C477.419 416.92 475.979 417.27 474.399 417.27ZM474.399 414.3C475.279 414.3 476.099 414.09 476.859 413.67C477.639 413.25 478.269 412.62 478.749 411.78C479.229 410.94 479.469 409.92 479.469 408.72C479.469 407.52 479.239 406.51 478.779 405.69C478.319 404.85 477.709 404.22 476.949 403.8C476.189 403.38 475.369 403.17 474.489 403.17C473.609 403.17 472.789 403.38 472.029 403.8C471.289 404.22 470.699 404.85 470.259 405.69C469.819 406.51 469.599 407.52 469.599 408.72C469.599 410.5 470.049 411.88 470.949 412.86C471.869 413.82 473.019 414.3 474.399 414.3ZM115.771 448.26H112.711V462H109.261V448.26H107.311V445.47H109.261V444.3C109.261 442.4 109.761 441.02 110.761 440.16C111.781 439.28 113.371 438.84 115.531 438.84V441.69C114.491 441.69 113.761 441.89 113.341 442.29C112.921 442.67 112.711 443.34 112.711 444.3V445.47H115.771V448.26ZM120.542 443.28C119.922 443.28 119.402 443.07 118.982 442.65C118.562 442.23 118.352 441.71 118.352 441.09C118.352 440.47 118.562 439.95 118.982 439.53C119.402 439.11 119.922 438.9 120.542 438.9C121.142 438.9 121.652 439.11 122.072 439.53C122.492 439.95 122.702 440.47 122.702 441.09C122.702 441.71 122.492 442.23 122.072 442.65C121.652 443.07 121.142 443.28 120.542 443.28ZM122.222 445.47V462H118.802V445.47H122.222ZM135.052 445.2C136.352 445.2 137.512 445.47 138.532 446.01C139.572 446.55 140.382 447.35 140.962 448.41C141.542 449.47 141.832 450.75 141.832 452.25V462H138.442V452.76C138.442 451.28 138.072 450.15 137.332 449.37C136.592 448.57 135.582 448.17 134.302 448.17C133.022 448.17 132.002 448.57 131.242 449.37C130.502 450.15 130.132 451.28 130.132 452.76V462H126.712V445.47H130.132V447.36C130.692 446.68 131.402 446.15 132.262 445.77C133.142 445.39 134.072 445.2 135.052 445.2ZM145.054 453.66C145.054 452 145.394 450.53 146.074 449.25C146.774 447.97 147.714 446.98 148.894 446.28C150.094 445.56 151.424 445.2 152.884 445.2C153.964 445.2 155.024 445.44 156.064 445.92C157.124 446.38 157.964 447 158.584 447.78V439.8H162.034V462H158.584V459.51C158.024 460.31 157.244 460.97 156.244 461.49C155.264 462.01 154.134 462.27 152.854 462.27C151.414 462.27 150.094 461.91 148.894 461.19C147.714 460.45 146.774 459.43 146.074 458.13C145.394 456.81 145.054 455.32 145.054 453.66ZM158.584 453.72C158.584 452.58 158.344 451.59 157.864 450.75C157.404 449.91 156.794 449.27 156.034 448.83C155.274 448.39 154.454 448.17 153.574 448.17C152.694 448.17 151.874 448.39 151.114 448.83C150.354 449.25 149.734 449.88 149.254 450.72C148.794 451.54 148.564 452.52 148.564 453.66C148.564 454.8 148.794 455.8 149.254 456.66C149.734 457.52 150.354 458.18 151.114 458.64C151.894 459.08 152.714 459.3 153.574 459.3C154.454 459.3 155.274 459.08 156.034 458.64C156.794 458.2 157.404 457.56 157.864 456.72C158.344 455.86 158.584 454.86 158.584 453.72ZM189.199 445.47L179.059 469.77H175.519L178.879 461.73L172.369 445.47H176.179L180.829 458.07L185.659 445.47H189.199ZM198.95 462.27C197.39 462.27 195.98 461.92 194.72 461.22C193.46 460.5 192.47 459.5 191.75 458.22C191.03 456.92 190.67 455.42 190.67 453.72C190.67 452.04 191.04 450.55 191.78 449.25C192.52 447.95 193.53 446.95 194.81 446.25C196.09 445.55 197.52 445.2 199.1 445.2C200.68 445.2 202.11 445.55 203.39 446.25C204.67 446.95 205.68 447.95 206.42 449.25C207.16 450.55 207.53 452.04 207.53 453.72C207.53 455.4 207.15 456.89 206.39 458.19C205.63 459.49 204.59 460.5 203.27 461.22C201.97 461.92 200.53 462.27 198.95 462.27ZM198.95 459.3C199.83 459.3 200.65 459.09 201.41 458.67C202.19 458.25 202.82 457.62 203.3 456.78C203.78 455.94 204.02 454.92 204.02 453.72C204.02 452.52 203.79 451.51 203.33 450.69C202.87 449.85 202.26 449.22 201.5 448.8C200.74 448.38 199.92 448.17 199.04 448.17C198.16 448.17 197.34 448.38 196.58 448.8C195.84 449.22 195.25 449.85 194.81 450.69C194.37 451.51 194.15 452.52 194.15 453.72C194.15 455.5 194.6 456.88 195.5 457.86C196.42 458.82 197.57 459.3 198.95 459.3ZM225.881 445.47V462H222.461V460.05C221.921 460.73 221.211 461.27 220.331 461.67C219.471 462.05 218.551 462.24 217.571 462.24C216.271 462.24 215.101 461.97 214.061 461.43C213.041 460.89 212.231 460.09 211.631 459.03C211.051 457.97 210.761 456.69 210.761 455.19V445.47H214.151V454.68C214.151 456.16 214.521 457.3 215.261 458.1C216.001 458.88 217.011 459.27 218.291 459.27C219.571 459.27 220.581 458.88 221.321 458.1C222.081 457.3 222.461 456.16 222.461 454.68V445.47H225.881ZM233.814 447.87C234.314 447.03 234.974 446.38 235.794 445.92C236.634 445.44 237.624 445.2 238.764 445.2V448.74H237.894C236.554 448.74 235.534 449.08 234.834 449.76C234.154 450.44 233.814 451.62 233.814 453.3V462H230.394V445.47H233.814V447.87ZM248.56 453.66C248.56 452 248.9 450.53 249.58 449.25C250.28 447.97 251.22 446.98 252.4 446.28C253.6 445.56 254.93 445.2 256.39 445.2C257.47 445.2 258.53 445.44 259.57 445.92C260.63 446.38 261.47 447 262.09 447.78V439.8H265.54V462H262.09V459.51C261.53 460.31 260.75 460.97 259.75 461.49C258.77 462.01 257.64 462.27 256.36 462.27C254.92 462.27 253.6 461.91 252.4 461.19C251.22 460.45 250.28 459.43 249.58 458.13C248.9 456.81 248.56 455.32 248.56 453.66ZM262.09 453.72C262.09 452.58 261.85 451.59 261.37 450.75C260.91 449.91 260.3 449.27 259.54 448.83C258.78 448.39 257.96 448.17 257.08 448.17C256.2 448.17 255.38 448.39 254.62 448.83C253.86 449.25 253.24 449.88 252.76 450.72C252.3 451.54 252.07 452.52 252.07 453.66C252.07 454.8 252.3 455.8 252.76 456.66C253.24 457.52 253.86 458.18 254.62 458.64C255.4 459.08 256.22 459.3 257.08 459.3C257.96 459.3 258.78 459.08 259.54 458.64C260.3 458.2 260.91 457.56 261.37 456.72C261.85 455.86 262.09 454.86 262.09 453.72ZM273.452 447.87C273.952 447.03 274.612 446.38 275.432 445.92C276.272 445.44 277.262 445.2 278.402 445.2V448.74H277.532C276.192 448.74 275.172 449.08 274.472 449.76C273.792 450.44 273.452 451.62 273.452 453.3V462H270.032V445.47H273.452V447.87ZM296.696 453.33C296.696 453.95 296.656 454.51 296.576 455.01H283.946C284.046 456.33 284.536 457.39 285.416 458.19C286.296 458.99 287.376 459.39 288.656 459.39C290.496 459.39 291.796 458.62 292.556 457.08H296.246C295.746 458.6 294.836 459.85 293.516 460.83C292.216 461.79 290.596 462.27 288.656 462.27C287.076 462.27 285.656 461.92 284.396 461.22C283.156 460.5 282.176 459.5 281.456 458.22C280.756 456.92 280.406 455.42 280.406 453.72C280.406 452.02 280.746 450.53 281.426 449.25C282.126 447.95 283.096 446.95 284.336 446.25C285.596 445.55 287.036 445.2 288.656 445.2C290.216 445.2 291.606 445.54 292.826 446.22C294.046 446.9 294.996 447.86 295.676 449.1C296.356 450.32 296.696 451.73 296.696 453.33ZM293.126 452.25C293.106 450.99 292.656 449.98 291.776 449.22C290.896 448.46 289.806 448.08 288.506 448.08C287.326 448.08 286.316 448.46 285.476 449.22C284.636 449.96 284.136 450.97 283.976 452.25H293.126ZM298.922 453.66C298.922 452 299.262 450.53 299.942 449.25C300.642 447.97 301.582 446.98 302.762 446.28C303.962 445.56 305.282 445.2 306.722 445.2C308.022 445.2 309.152 445.46 310.112 445.98C311.092 446.48 311.872 447.11 312.452 447.87V445.47H315.902V462H312.452V459.54C311.872 460.32 311.082 460.97 310.082 461.49C309.082 462.01 307.942 462.27 306.662 462.27C305.242 462.27 303.942 461.91 302.762 461.19C301.582 460.45 300.642 459.43 299.942 458.13C299.262 456.81 298.922 455.32 298.922 453.66ZM312.452 453.72C312.452 452.58 312.212 451.59 311.732 450.75C311.272 449.91 310.662 449.27 309.902 448.83C309.142 448.39 308.322 448.17 307.442 448.17C306.562 448.17 305.742 448.39 304.982 448.83C304.222 449.25 303.602 449.88 303.122 450.72C302.662 451.54 302.432 452.52 302.432 453.66C302.432 454.8 302.662 455.8 303.122 456.66C303.602 457.52 304.222 458.18 304.982 458.64C305.762 459.08 306.582 459.3 307.442 459.3C308.322 459.3 309.142 459.08 309.902 458.64C310.662 458.2 311.272 457.56 311.732 456.72C312.212 455.86 312.452 454.86 312.452 453.72ZM340.404 445.2C341.704 445.2 342.864 445.47 343.884 446.01C344.924 446.55 345.734 447.35 346.314 448.41C346.914 449.47 347.214 450.75 347.214 452.25V462H343.824V452.76C343.824 451.28 343.454 450.15 342.714 449.37C341.974 448.57 340.964 448.17 339.684 448.17C338.404 448.17 337.384 448.57 336.624 449.37C335.884 450.15 335.514 451.28 335.514 452.76V462H332.124V452.76C332.124 451.28 331.754 450.15 331.014 449.37C330.274 448.57 329.264 448.17 327.984 448.17C326.704 448.17 325.684 448.57 324.924 449.37C324.184 450.15 323.814 451.28 323.814 452.76V462H320.394V445.47H323.814V447.36C324.374 446.68 325.084 446.15 325.944 445.77C326.804 445.39 327.724 445.2 328.704 445.2C330.024 445.2 331.204 445.48 332.244 446.04C333.284 446.6 334.084 447.41 334.644 448.47C335.144 447.47 335.924 446.68 336.984 446.1C338.044 445.5 339.184 445.2 340.404 445.2ZM367.908 445.2C369.168 445.2 370.288 445.47 371.268 446.01C372.268 446.55 373.048 447.35 373.608 448.41C374.188 449.47 374.478 450.75 374.478 452.25V462H371.088V452.76C371.088 451.28 370.718 450.15 369.978 449.37C369.238 448.57 368.228 448.17 366.948 448.17C365.668 448.17 364.648 448.57 363.888 449.37C363.148 450.15 362.778 451.28 362.778 452.76V462H359.358V439.8H362.778V447.39C363.358 446.69 364.088 446.15 364.968 445.77C365.868 445.39 366.848 445.2 367.908 445.2ZM386.011 462.27C384.451 462.27 383.041 461.92 381.781 461.22C380.521 460.5 379.531 459.5 378.811 458.22C378.091 456.92 377.731 455.42 377.731 453.72C377.731 452.04 378.101 450.55 378.841 449.25C379.581 447.95 380.591 446.95 381.871 446.25C383.151 445.55 384.581 445.2 386.161 445.2C387.741 445.2 389.171 445.55 390.451 446.25C391.731 446.95 392.741 447.95 393.481 449.25C394.221 450.55 394.591 452.04 394.591 453.72C394.591 455.4 394.211 456.89 393.451 458.19C392.691 459.49 391.651 460.5 390.331 461.22C389.031 461.92 387.591 462.27 386.011 462.27ZM386.011 459.3C386.891 459.3 387.711 459.09 388.471 458.67C389.251 458.25 389.881 457.62 390.361 456.78C390.841 455.94 391.081 454.92 391.081 453.72C391.081 452.52 390.851 451.51 390.391 450.69C389.931 449.85 389.321 449.22 388.561 448.8C387.801 448.38 386.981 448.17 386.101 448.17C385.221 448.17 384.401 448.38 383.641 448.8C382.901 449.22 382.311 449.85 381.871 450.69C381.431 451.51 381.211 452.52 381.211 453.72C381.211 455.5 381.661 456.88 382.561 457.86C383.481 458.82 384.631 459.3 386.011 459.3ZM417.982 445.2C419.282 445.2 420.442 445.47 421.462 446.01C422.502 446.55 423.312 447.35 423.892 448.41C424.492 449.47 424.792 450.75 424.792 452.25V462H421.402V452.76C421.402 451.28 421.032 450.15 420.292 449.37C419.552 448.57 418.542 448.17 417.262 448.17C415.982 448.17 414.962 448.57 414.202 449.37C413.462 450.15 413.092 451.28 413.092 452.76V462H409.702V452.76C409.702 451.28 409.332 450.15 408.592 449.37C407.852 448.57 406.842 448.17 405.562 448.17C404.282 448.17 403.262 448.57 402.502 449.37C401.762 450.15 401.392 451.28 401.392 452.76V462H397.972V445.47H401.392V447.36C401.952 446.68 402.662 446.15 403.522 445.77C404.382 445.39 405.302 445.2 406.282 445.2C407.602 445.2 408.782 445.48 409.822 446.04C410.862 446.6 411.662 447.41 412.222 448.47C412.722 447.47 413.502 446.68 414.562 446.1C415.622 445.5 416.762 445.2 417.982 445.2ZM444.294 453.33C444.294 453.95 444.254 454.51 444.174 455.01H431.544C431.644 456.33 432.134 457.39 433.014 458.19C433.894 458.99 434.974 459.39 436.254 459.39C438.094 459.39 439.394 458.62 440.154 457.08H443.844C443.344 458.6 442.434 459.85 441.114 460.83C439.814 461.79 438.194 462.27 436.254 462.27C434.674 462.27 433.254 461.92 431.994 461.22C430.754 460.5 429.774 459.5 429.054 458.22C428.354 456.92 428.004 455.42 428.004 453.72C428.004 452.02 428.344 450.53 429.024 449.25C429.724 447.95 430.694 446.95 431.934 446.25C433.194 445.55 434.634 445.2 436.254 445.2C437.814 445.2 439.204 445.54 440.424 446.22C441.644 446.9 442.594 447.86 443.274 449.1C443.954 450.32 444.294 451.73 444.294 453.33ZM440.724 452.25C440.704 450.99 440.254 449.98 439.374 449.22C438.494 448.46 437.404 448.08 436.104 448.08C434.924 448.08 433.914 448.46 433.074 449.22C432.234 449.96 431.734 450.97 431.574 452.25H440.724Z" fill="#828282"/>
<path d="M207.21 501.15V522H203.79V507.72L197.43 522H195.06L188.67 507.72V522H185.25V501.15H188.94L196.26 517.5L203.55 501.15H207.21ZM218.875 522.27C217.315 522.27 215.905 521.92 214.645 521.22C213.385 520.5 212.395 519.5 211.675 518.22C210.955 516.92 210.595 515.42 210.595 513.72C210.595 512.04 210.965 510.55 211.705 509.25C212.445 507.95 213.455 506.95 214.735 506.25C216.015 505.55 217.445 505.2 219.025 505.2C220.605 505.2 222.035 505.55 223.315 506.25C224.595 506.95 225.605 507.95 226.345 509.25C227.085 510.55 227.455 512.04 227.455 513.72C227.455 515.4 227.075 516.89 226.315 518.19C225.555 519.49 224.515 520.5 223.195 521.22C221.895 521.92 220.455 522.27 218.875 522.27ZM218.875 519.3C219.755 519.3 220.575 519.09 221.335 518.67C222.115 518.25 222.745 517.62 223.225 516.78C223.705 515.94 223.945 514.92 223.945 513.72C223.945 512.52 223.715 511.51 223.255 510.69C222.795 509.85 222.185 509.22 221.425 508.8C220.665 508.38 219.845 508.17 218.965 508.17C218.085 508.17 217.265 508.38 216.505 508.8C215.765 509.22 215.175 509.85 214.735 510.69C214.295 511.51 214.075 512.52 214.075 513.72C214.075 515.5 214.525 516.88 215.425 517.86C216.345 518.82 217.495 519.3 218.875 519.3ZM234.256 507.87C234.756 507.03 235.416 506.38 236.236 505.92C237.076 505.44 238.066 505.2 239.206 505.2V508.74H238.336C236.996 508.74 235.976 509.08 235.276 509.76C234.596 510.44 234.256 511.62 234.256 513.3V522H230.836V505.47H234.256V507.87ZM257.5 513.33C257.5 513.95 257.46 514.51 257.38 515.01H244.75C244.85 516.33 245.34 517.39 246.22 518.19C247.1 518.99 248.18 519.39 249.46 519.39C251.3 519.39 252.6 518.62 253.36 517.08H257.05C256.55 518.6 255.64 519.85 254.32 520.83C253.02 521.79 251.4 522.27 249.46 522.27C247.88 522.27 246.46 521.92 245.2 521.22C243.96 520.5 242.98 519.5 242.26 518.22C241.56 516.92 241.21 515.42 241.21 513.72C241.21 512.02 241.55 510.53 242.23 509.25C242.93 507.95 243.9 506.95 245.14 506.25C246.4 505.55 247.84 505.2 249.46 505.2C251.02 505.2 252.41 505.54 253.63 506.22C254.85 506.9 255.8 507.86 256.48 509.1C257.16 510.32 257.5 511.73 257.5 513.33ZM253.93 512.25C253.91 510.99 253.46 509.98 252.58 509.22C251.7 508.46 250.61 508.08 249.31 508.08C248.13 508.08 247.12 508.46 246.28 509.22C245.44 509.96 244.94 510.97 244.78 512.25H253.93ZM267.518 513.66C267.518 512 267.858 510.53 268.538 509.25C269.238 507.97 270.178 506.98 271.358 506.28C272.558 505.56 273.888 505.2 275.348 505.2C276.428 505.2 277.488 505.44 278.528 505.92C279.588 506.38 280.428 507 281.048 507.78V499.8H284.498V522H281.048V519.51C280.488 520.31 279.708 520.97 278.708 521.49C277.728 522.01 276.598 522.27 275.318 522.27C273.878 522.27 272.558 521.91 271.358 521.19C270.178 520.45 269.238 519.43 268.538 518.13C267.858 516.81 267.518 515.32 267.518 513.66ZM281.048 513.72C281.048 512.58 280.808 511.59 280.328 510.75C279.868 509.91 279.258 509.27 278.498 508.83C277.738 508.39 276.918 508.17 276.038 508.17C275.158 508.17 274.338 508.39 273.578 508.83C272.818 509.25 272.198 509.88 271.718 510.72C271.258 511.54 271.028 512.52 271.028 513.66C271.028 514.8 271.258 515.8 271.718 516.66C272.198 517.52 272.818 518.18 273.578 518.64C274.358 519.08 275.178 519.3 276.038 519.3C276.918 519.3 277.738 519.08 278.498 518.64C279.258 518.2 279.868 517.56 280.328 516.72C280.808 515.86 281.048 514.86 281.048 513.72ZM304.14 513.33C304.14 513.95 304.1 514.51 304.02 515.01H291.39C291.49 516.33 291.98 517.39 292.86 518.19C293.74 518.99 294.82 519.39 296.1 519.39C297.94 519.39 299.24 518.62 300 517.08H303.69C303.19 518.6 302.28 519.85 300.96 520.83C299.66 521.79 298.04 522.27 296.1 522.27C294.52 522.27 293.1 521.92 291.84 521.22C290.6 520.5 289.62 519.5 288.9 518.22C288.2 516.92 287.85 515.42 287.85 513.72C287.85 512.02 288.19 510.53 288.87 509.25C289.57 507.95 290.54 506.95 291.78 506.25C293.04 505.55 294.48 505.2 296.1 505.2C297.66 505.2 299.05 505.54 300.27 506.22C301.49 506.9 302.44 507.86 303.12 509.1C303.8 510.32 304.14 511.73 304.14 513.33ZM300.57 512.25C300.55 510.99 300.1 509.98 299.22 509.22C298.34 508.46 297.25 508.08 295.95 508.08C294.77 508.08 293.76 508.46 292.92 509.22C292.08 509.96 291.58 510.97 291.42 512.25H300.57ZM311.496 508.26V517.41C311.496 518.03 311.636 518.48 311.916 518.76C312.216 519.02 312.716 519.15 313.416 519.15H315.516V522H312.816C311.276 522 310.096 521.64 309.276 520.92C308.456 520.2 308.046 519.03 308.046 517.41V508.26H306.096V505.47H308.046V501.36H311.496V505.47H315.516V508.26H311.496ZM317.528 513.66C317.528 512 317.868 510.53 318.548 509.25C319.248 507.97 320.188 506.98 321.368 506.28C322.568 505.56 323.888 505.2 325.328 505.2C326.628 505.2 327.758 505.46 328.718 505.98C329.698 506.48 330.478 507.11 331.058 507.87V505.47H334.508V522H331.058V519.54C330.478 520.32 329.688 520.97 328.688 521.49C327.688 522.01 326.548 522.27 325.268 522.27C323.848 522.27 322.548 521.91 321.368 521.19C320.188 520.45 319.248 519.43 318.548 518.13C317.868 516.81 317.528 515.32 317.528 513.66ZM331.058 513.72C331.058 512.58 330.818 511.59 330.338 510.75C329.878 509.91 329.268 509.27 328.508 508.83C327.748 508.39 326.928 508.17 326.048 508.17C325.168 508.17 324.348 508.39 323.588 508.83C322.828 509.25 322.208 509.88 321.728 510.72C321.268 511.54 321.038 512.52 321.038 513.66C321.038 514.8 321.268 515.8 321.728 516.66C322.208 517.52 322.828 518.18 323.588 518.64C324.368 519.08 325.188 519.3 326.048 519.3C326.928 519.3 327.748 519.08 328.508 518.64C329.268 518.2 329.878 517.56 330.338 516.72C330.818 515.86 331.058 514.86 331.058 513.72ZM340.74 503.28C340.12 503.28 339.6 503.07 339.18 502.65C338.76 502.23 338.55 501.71 338.55 501.09C338.55 500.47 338.76 499.95 339.18 499.53C339.6 499.11 340.12 498.9 340.74 498.9C341.34 498.9 341.85 499.11 342.27 499.53C342.69 499.95 342.9 500.47 342.9 501.09C342.9 501.71 342.69 502.23 342.27 502.65C341.85 503.07 341.34 503.28 340.74 503.28ZM342.42 505.47V522H339V505.47H342.42ZM350.33 499.8V522H346.91V499.8H350.33ZM360.82 522.27C359.52 522.27 358.35 522.04 357.31 521.58C356.29 521.1 355.48 520.46 354.88 519.66C354.28 518.84 353.96 517.93 353.92 516.93H357.46C357.52 517.63 357.85 518.22 358.45 518.7C359.07 519.16 359.84 519.39 360.76 519.39C361.72 519.39 362.46 519.21 362.98 518.85C363.52 518.47 363.79 517.99 363.79 517.41C363.79 516.79 363.49 516.33 362.89 516.03C362.31 515.73 361.38 515.4 360.1 515.04C358.86 514.7 357.85 514.37 357.07 514.05C356.29 513.73 355.61 513.24 355.03 512.58C354.47 511.92 354.19 511.05 354.19 509.97C354.19 509.09 354.45 508.29 354.97 507.57C355.49 506.83 356.23 506.25 357.19 505.83C358.17 505.41 359.29 505.2 360.55 505.2C362.43 505.2 363.94 505.68 365.08 506.64C366.24 507.58 366.86 508.87 366.94 510.51H363.52C363.46 509.77 363.16 509.18 362.62 508.74C362.08 508.3 361.35 508.08 360.43 508.08C359.53 508.08 358.84 508.25 358.36 508.59C357.88 508.93 357.64 509.38 357.64 509.94C357.64 510.38 357.8 510.75 358.12 511.05C358.44 511.35 358.83 511.59 359.29 511.77C359.75 511.93 360.43 512.14 361.33 512.4C362.53 512.72 363.51 513.05 364.27 513.39C365.05 513.71 365.72 514.19 366.28 514.83C366.84 515.47 367.13 516.32 367.15 517.38C367.15 518.32 366.89 519.16 366.37 519.9C365.85 520.64 365.11 521.22 364.15 521.64C363.21 522.06 362.1 522.27 360.82 522.27Z" fill="#316499"/>
<path d="M183 525H368.59V526.5H183V525Z" fill="#316499"/>
<path d="M307.167 142.75V120.667H294.667V131.5L278 116.5L236.333 154H248.833V187.333H273.833V162.333H282.167V187.333H307.167V154H319.667L307.167 142.75ZM298.833 179H290.5V154H265.5V179H257.167V146.458L278 127.708L298.833 146.458V179Z" fill="#316499"/>
<path d="M269.667 145.667H286.333C286.333 141.083 282.583 137.333 278 137.333C273.417 137.333 269.667 141.083 269.667 145.667Z" fill="#316499"/>
</svg>
