<svg width="42" height="34" viewBox="0 0 42 34" fill="none" xmlns="http://www.w3.org/2000/svg">
<path d="M30.9583 7.04168C31.2542 7.33334 31.4167 7.73126 31.4167 8.14584V13.3542C31.4167 13.7686 31.252 14.166 30.959 14.459C30.666 14.7521 30.2686 14.9167 29.8542 14.9167C29.4398 14.9167 29.0423 14.7521 28.7493 14.459C28.4563 14.166 28.2917 13.7686 28.2917 13.3542V11.9167L24.7083 15.5C24.5641 15.6492 24.3916 15.7681 24.201 15.8499C24.0103 15.9317 23.8053 15.9747 23.5978 15.9764C23.3903 15.9781 23.1846 15.9385 22.9926 15.8599C22.8006 15.7812 22.6262 15.6651 22.4796 15.5183C22.3329 15.3715 22.217 15.197 22.1385 15.005C22.0601 14.8129 22.0206 14.6071 22.0225 14.3997C22.0244 14.1922 22.0676 13.9872 22.1496 13.7966C22.2316 13.606 22.3507 13.4337 22.5 13.2896L26.0833 9.70834H24.6458C24.2314 9.70834 23.834 9.54372 23.541 9.2507C23.2479 8.95767 23.0833 8.56024 23.0833 8.14584C23.0833 7.73144 23.2479 7.33401 23.541 7.04099C23.834 6.74796 24.2314 6.58334 24.6458 6.58334H29.8542C30.2684 6.58371 30.6656 6.74857 30.9583 7.04168ZM10.5833 25.8542C10.5833 26.2686 10.7479 26.666 11.041 26.959C11.334 27.2521 11.7314 27.4167 12.1458 27.4167H17.3562C17.7706 27.4167 18.1681 27.2521 18.4611 26.959C18.7541 26.666 18.9187 26.2686 18.9187 25.8542C18.9187 25.4398 18.7541 25.0423 18.4611 24.7493C18.1681 24.4563 17.7706 24.2917 17.3562 24.2917H15.9187L19.5021 20.7083C19.7866 20.4135 19.9439 20.0188 19.9401 19.6091C19.9364 19.1994 19.7719 18.8076 19.482 18.518C19.1922 18.2284 18.8002 18.0643 18.3905 18.0609C17.9808 18.0576 17.5862 18.2152 17.2917 18.5L13.7083 22.0792V20.6417C13.7083 20.2273 13.5437 19.8298 13.2507 19.5368C12.9577 19.2438 12.5602 19.0792 12.1458 19.0792C11.7314 19.0792 11.334 19.2438 11.041 19.5368C10.7479 19.8298 10.5833 20.2273 10.5833 20.6417V25.85V25.8542ZM0.166656 6.06251C0.166656 4.54304 0.770263 3.0858 1.84469 2.01138C2.91912 0.93695 4.37635 0.333344 5.89582 0.333344H36.1042C37.6236 0.333344 39.0809 0.93695 40.1553 2.01138C41.2297 3.0858 41.8333 4.54304 41.8333 6.06251V27.9375C41.8333 28.6899 41.6851 29.4349 41.3972 30.13C41.1093 30.8251 40.6873 31.4566 40.1553 31.9886C39.6233 32.5206 38.9917 32.9426 38.2966 33.2306C37.6015 33.5185 36.8565 33.6667 36.1042 33.6667H5.89582C5.14346 33.6667 4.39846 33.5185 3.70337 33.2306C3.00827 32.9426 2.37669 32.5206 1.84469 31.9886C1.31269 31.4566 0.890681 30.8251 0.602763 30.13C0.314846 29.4349 0.166656 28.6899 0.166656 27.9375V6.06251ZM5.89582 3.45834C4.45832 3.45834 3.29166 4.62501 3.29166 6.06251V27.9375C3.29166 29.375 4.45832 30.5417 5.89582 30.5417H36.1042C37.5417 30.5417 38.7083 29.375 38.7083 27.9375V6.06251C38.7083 4.62501 37.5417 3.45834 36.1042 3.45834H5.89582Z" fill="#828282"/>
</svg>
