<svg width="30" height="36" viewBox="0 0 30 36" fill="none" xmlns="http://www.w3.org/2000/svg">
<path d="M15 19.6667C17.7614 19.6667 20 17.4281 20 14.6667C20 11.9053 17.7614 9.66669 15 9.66669C12.2386 9.66669 10 11.9053 10 14.6667C10 17.4281 12.2386 19.6667 15 19.6667Z" stroke="black" stroke-width="2" stroke-linecap="round" stroke-linejoin="round"/>
<path d="M15 1.33334C11.4638 1.33334 8.07241 2.7381 5.57193 5.23859C3.07145 7.73907 1.66669 11.1305 1.66669 14.6667C1.66669 17.82 2.33669 19.8833 4.16669 22.1667L15 34.6667L25.8334 22.1667C27.6634 19.8833 28.3334 17.82 28.3334 14.6667C28.3334 11.1305 26.9286 7.73907 24.4281 5.23859C21.9276 2.7381 18.5362 1.33334 15 1.33334V1.33334Z" stroke="black" stroke-width="2" stroke-linecap="round" stroke-linejoin="round"/>
</svg>
